<svg xmlns="http://www.w3.org/2000/svg" viewBox="0 0 1024 1024" role="img" aria-label="pi-pcloud">
  <!-- Safari renders rel="mask-icon" as a single-colour silhouette, so the mark
       cannot be used as-is: this is its ink (cloud outline, house, p) traced off
       docs/assets/logo.png. Redraw it by hand if the mark ever changes. -->
  <g fill="#000000" fill-rule="evenodd" transform="translate(20.0 145.5) scale(1.12073)">
    <path d="M429.0,-0.5 390.0,4.5 354.0,15.5 321.0,31.5 292.0,51.5 260.5,82.0 238.5,112.0 220.5,147.0 210.5,180.0 169.0,188.5 143.0,197.5 113.0,212.5 87.0,230.5 64.5,251.0 41.5,279.0 20.5,316.0 8.5,348.0 2.5,374.0 -0.5,399.0 -0.5,433.0 3.5,463.0 10.5,490.0 19.5,514.0 33.5,541.0 45.5,559.0 78.0,594.5 105.0,615.5 125.0,627.5 146.0,637.5 169.0,645.5 214.0,653.5 240.0,653.5 247.0,651.5 255.0,647.5 263.5,639.0 269.5,626.0 269.5,382.0 438.0,251.5 606.5,381.0 607.5,626.0 612.5,638.0 625.0,649.5 637.0,653.5 658.0,653.5 698.0,647.5 743.0,631.5 777.0,611.5 796.0,596.5 819.5,573.0 833.5,555.0 854.5,519.0 867.5,485.0 875.5,447.0 877.5,420.0 876.5,391.0 872.5,364.0 857.5,318.0 844.5,293.0 821.5,262.0 803.0,243.5 788.0,231.5 748.0,208.5 713.0,196.5 694.0,192.5 671.0,190.5 658.5,148.0 637.5,108.0 613.5,77.0 598.0,61.5 576.0,43.5 543.0,23.5 501.0,7.5 464.0,0.5 430.0,-0.5Z M422.5,72.0 455.0,71.5 483.0,76.5 504.0,83.5 535.0,100.5 562.5,124.0 576.5,141.0 588.5,160.0 602.5,194.0 607.5,218.0 608.5,241.0 615.0,251.5 621.0,254.5 656.0,254.5 676.0,256.5 709.0,265.5 733.0,277.5 749.0,288.5 780.5,321.0 798.5,353.0 804.5,370.0 810.5,402.0 810.5,428.0 807.5,450.0 797.5,482.0 785.5,505.0 767.5,529.0 747.0,548.5 717.0,567.5 679.0,580.5 657.5,582.0 657.5,365.0 654.5,357.0 631.0,336.5 454.0,199.5 444.0,194.5 434.0,194.5 423.0,199.5 223.5,356.0 219.5,367.0 220.0,582.5 184.0,576.5 151.0,562.5 123.0,542.5 102.5,521.0 86.5,497.0 78.5,480.0 70.5,456.0 66.5,434.0 66.5,399.0 71.5,373.0 80.5,348.0 98.5,317.0 106.5,307.0 129.0,285.5 150.0,271.5 166.0,263.5 203.0,252.5 219.0,250.5 257.0,250.5 264.0,246.5 269.5,238.0 271.5,213.0 280.5,180.0 292.5,155.0 309.5,131.0 335.0,106.5 356.0,92.5 392.0,77.5 422.0,72.5Z M430.0,362.5 401.0,370.5 375.0,386.5 359.5,402.0 350.5,415.0 338.5,443.0 334.5,470.0 334.5,646.0 340.0,653.5 383.0,653.5 387.5,650.0 389.5,644.0 389.0,566.5 403.0,573.5 431.0,580.5 460.0,579.5 486.0,571.5 506.0,559.5 523.5,543.0 535.5,526.0 545.5,502.0 549.5,480.0 547.5,447.0 541.5,428.0 525.5,402.0 505.0,382.5 482.0,369.5 462.0,363.5 431.0,362.5Z M438.5,417.0 452.0,417.5 470.0,424.5 484.5,437.0 492.5,451.0 496.5,468.0 495.5,482.0 492.5,492.0 482.5,508.0 473.0,516.5 462.0,522.5 451.0,525.5 435.0,525.5 421.0,521.5 411.0,515.5 399.5,504.0 392.5,491.0 389.5,481.0 389.5,462.0 395.5,445.0 402.5,435.0 415.0,424.5 429.0,418.5 438.0,417.5Z M437.0,439.5 425.0,444.5 416.5,453.0 411.5,465.0 411.5,478.0 415.5,488.0 424.0,497.5 439.0,503.5 454.0,501.5 465.5,494.0 472.5,483.0 474.5,467.0 469.5,454.0 463.0,446.5 452.0,440.5 438.0,439.5Z"/>
  </g>
</svg>
